# xmcd
#
# Track frame offsets:
#	150
#	15117
#	29580
#	45162
#	58072
#	70487
#	83042
#	99022
#	112707
#	127705
#	141345
#	153365
#	165922
#	180427
#	192465
#	206177
#	218157
#	230530
#	246917
#	261197
#	270957
#	283380
#	298022
#	311977
#	323175
#
# Disc length: 4479 seconds
#
# Revision: 1
# Processed by: cddbd v1.5.2PL0 Copyright (c) Steve Scherf et al.
# Submitted via: EasyCDDAExtractor 2010.6.0.0
#
DISCID=5f117d19
DTITLE=Various Artist - Shit Happens!
DYEAR=1900
DGENRE=Country
TTITLE0=Eddy Arnold - Mommy Please Stay Home With Me
TTITLE1=Dolly Parton and Porter Wagoner - Mommie, Ain't That Daddy
TTITLE2=Hank Snow - Don't Make Me Go To Bed And I'll Be Good
TTITLE3=George Hamilton IV - Little Tom
TTITLE4=Dolly Parton and Porter Wagoner - Jeannie's Afraid Of The Dark
TTITLE5=Hank Thompson - Little Blossom
TTITLE6=Hank Snow - The Answer To 'Little Blossom'
TTITLE7=Hank Snow - The Drunkard's Son
TTITLE8=Hank Snow - Nobody's Child
TTITLE9=Eddy Arnold - Did You See My Daddy Over There
TTITLE10=The Louvin Brothers - Mother I Thank You For The Bible You Gave
TTITLE11=Hank Snow - The Blind Boy's Dog
TTITLE12=Hal Lone Pine and Betty Cody - O Lord Please Tell Me, Do
TTITLE13=Ted Harris - Pickin' Flowers
TTITLE14=Webb Pierce and Red Sovine - Little Rosa
TTITLE15=Jim Reeves - Mother Went A-Walkin'
TTITLE16=Johnny Cash - Give My Lovev To Rose
TTITLE17=Webb Pierce - The Hobo And The Rose
TTITLE18=Red Foley - Old Shep
TTITLE19=Hal Lone Pine - Dear Sister
TTITLE20=Johnny Horton - Another Woman Wears My Wedding Ring
TTITLE21=Porter Wagoner - The Cold Hard Facts Of Life
TTITLE22=Ed Bruce - Tiny Golden Locket
TTITLE23=Ferlin Husky - Drunken Driver
TTITLE24=Porter Wagoner - The Carroll County Accident
EXTD=
EXTT0=
EXTT1=
EXTT2=
EXTT3=
EXTT4=
EXTT5=
EXTT6=
EXTT7=
EXTT8=
EXTT9=
EXTT10=
EXTT11=
EXTT12=
EXTT13=
EXTT14=
EXTT15=
EXTT16=
EXTT17=
EXTT18=
EXTT19=
EXTT20=
EXTT21=
EXTT22=
EXTT23=
EXTT24=
PLAYORDER=
